<svg xmlns="http://www.w3.org/2000/svg" width="600" height="500" viewBox="0 0 600 500">
  <defs>
    <linearGradient id="bg" x1="0" y1="0" x2="0" y2="1">
      <stop offset="0%" stop-color="#2D2D44"/>
      <stop offset="100%" stop-color="#1A1A2E"/>
    </linearGradient>
    <radialGradient id="glow" cx="50%" cy="40%" r="45%">
      <stop offset="0%" stop-color="rgba(108,99,255,0.25)"/>
      <stop offset="100%" stop-color="transparent"/>
    </radialGradient>
  </defs>
  <rect width="600" height="500" rx="12" fill="url(#bg)"/>
  <rect width="600" height="500" rx="12" fill="url(#glow)"/>

  <!-- Grid of crowd dots -->
  <g opacity="0.35">
    <circle cx="180" cy="200" r="4" fill="#6C63FF"/>
    <circle cx="200" cy="185" r="3.5" fill="#8B83FF"/>
    <circle cx="220" cy="195" r="4.5" fill="#6C63FF"/>
    <circle cx="240" cy="180" r="3" fill="#8B83FF"/>
    <circle cx="260" cy="190" r="5" fill="#6C63FF"/>
    <circle cx="280" cy="185" r="3.5" fill="#8B83FF"/>
    <circle cx="300" cy="175" r="4" fill="#6C63FF"/>
    <circle cx="320" cy="190" r="4.5" fill="#8B83FF"/>
    <circle cx="340" cy="185" r="3" fill="#6C63FF"/>
    <circle cx="360" cy="195" r="4" fill="#8B83FF"/>
    <circle cx="380" cy="180" r="3.5" fill="#6C63FF"/>
    <circle cx="400" cy="190" r="4" fill="#8B83FF"/>
    <circle cx="420" cy="185" r="3" fill="#6C63FF"/>

    <circle cx="190" cy="220" r="3.5" fill="#8B83FF"/>
    <circle cx="210" cy="215" r="4" fill="#6C63FF"/>
    <circle cx="230" cy="225" r="3" fill="#8B83FF"/>
    <circle cx="250" cy="210" r="5" fill="#6C63FF"/>
    <circle cx="270" cy="220" r="4" fill="#8B83FF"/>
    <circle cx="290" cy="205" r="3.5" fill="#6C63FF"/>
    <circle cx="310" cy="215" r="4.5" fill="#8B83FF"/>
    <circle cx="330" cy="210" r="3" fill="#6C63FF"/>
    <circle cx="350" cy="225" r="4" fill="#8B83FF"/>
    <circle cx="370" cy="210" r="3.5" fill="#6C63FF"/>
    <circle cx="390" cy="220" r="4" fill="#8B83FF"/>
    <circle cx="410" cy="215" r="3" fill="#6C63FF"/>

    <circle cx="200" cy="240" r="4" fill="#6C63FF"/>
    <circle cx="220" cy="245" r="3" fill="#8B83FF"/>
    <circle cx="240" cy="235" r="4.5" fill="#6C63FF"/>
    <circle cx="260" cy="245" r="3.5" fill="#8B83FF"/>
    <circle cx="280" cy="235" r="4" fill="#6C63FF"/>
    <circle cx="300" cy="240" r="5" fill="#8B83FF"/>
    <circle cx="320" cy="235" r="3" fill="#6C63FF"/>
    <circle cx="340" cy="245" r="4" fill="#8B83FF"/>
    <circle cx="360" cy="240" r="3.5" fill="#6C63FF"/>
    <circle cx="380" cy="245" r="4" fill="#8B83FF"/>
    <circle cx="400" cy="235" r="3" fill="#6C63FF"/>
  </g>

  <!-- Title -->
  <text x="300" y="310" text-anchor="middle" font-family="sans-serif" font-size="14" fill="rgba(255,255,255,0.4)" letter-spacing="4">CROWDCONTROL</text>

  <!-- Knob placeholders -->
  <g opacity="0.5">
    <circle cx="170" cy="380" r="24" fill="none" stroke="rgba(255,255,255,0.12)" stroke-width="3"/>
    <circle cx="250" cy="380" r="24" fill="none" stroke="rgba(255,255,255,0.12)" stroke-width="3"/>
    <circle cx="330" cy="380" r="24" fill="none" stroke="rgba(255,255,255,0.12)" stroke-width="3"/>
    <circle cx="410" cy="380" r="24" fill="none" stroke="rgba(255,255,255,0.12)" stroke-width="3"/>

    <text x="170" y="420" text-anchor="middle" font-family="monospace" font-size="8" fill="rgba(255,255,255,0.25)">VOICES</text>
    <text x="250" y="420" text-anchor="middle" font-family="monospace" font-size="8" fill="rgba(255,255,255,0.25)">DEPTH</text>
    <text x="330" y="420" text-anchor="middle" font-family="monospace" font-size="8" fill="rgba(255,255,255,0.25)">DRY/WET</text>
    <text x="410" y="420" text-anchor="middle" font-family="monospace" font-size="8" fill="rgba(255,255,255,0.25)">CHAOS</text>
  </g>

  <!-- Replace me label -->
  <text x="300" y="465" text-anchor="middle" font-family="sans-serif" font-size="11" fill="rgba(255,255,255,0.2)">Replace with real screenshot</text>
</svg>
